<svg xmlns="http://www.w3.org/2000/svg" width="512" height="512" viewBox="0 0 512 512">
<g>
<path d="M 236.00 511.37 C202.98,508.27 175.55,501.45 150.19,490.03 C42.12,441.37 -6.33,321.99 24.16,179.50 C31.10,147.08 42.78,113.37 56.69,85.62 C59.69,79.64 61.77,74.41 61.32,74.00 C60.87,73.58 56.13,71.35 50.80,69.03 C43.66,65.94 40.06,63.71 37.20,60.60 C28.21,50.85 27.78,41.03 35.55,23.50 C41.43,10.25 45.91,4.93 53.63,2.04 C60.40,-0.50 65.15,-0.54 72.09,1.88 C80.13,4.68 123.86,23.75 128.66,26.55 C138.16,32.09 146.37,43.52 149.01,54.89 C151.53,65.70 149.52,75.18 140.72,94.00 C131.91,112.84 122.31,143.33 118.06,166.00 C108.55,216.73 111.55,266.40 126.46,305.03 C142.40,346.33 172.79,376.61 211.09,389.36 C226.74,394.57 237.90,396.29 256.00,396.29 C274.10,396.29 285.26,394.57 300.91,389.36 C339.21,376.61 369.60,346.33 385.54,305.03 C400.45,266.40 403.45,216.73 393.94,166.00 C389.69,143.33 380.09,112.84 371.28,94.00 C362.48,75.18 360.47,65.70 362.99,54.89 C365.63,43.52 373.84,32.09 383.34,26.55 C388.14,23.75 431.87,4.68 439.91,1.88 C446.85,-0.54 451.60,-0.50 458.37,2.04 C466.09,4.93 470.57,10.25 476.45,23.50 C484.22,41.03 483.79,50.85 474.80,60.60 C471.94,63.71 468.34,65.94 461.20,69.03 C455.87,71.35 451.13,73.58 450.68,74.00 C450.23,74.41 452.31,79.64 455.31,85.62 C489.33,153.48 503.82,238.23 493.42,308.50 C477.12,418.55 401.21,494.68 293.00,509.50 C281.87,511.03 245.15,512.23 236.00,511.37 ZM 285.00 493.45 C326.22,488.72 363.67,474.43 394.27,451.74 C404.11,444.45 420.96,428.28 429.17,418.27 C455.66,385.95 472.11,344.94 478.19,296.00 C479.89,282.37 479.89,240.06 478.19,224.50 C472.80,175.10 458.07,126.32 435.87,84.41 C426.73,67.13 427.35,65.22 444.50,57.98 C460.37,51.28 462.63,50.07 464.01,47.49 C466.39,43.03 465.41,39.14 457.92,23.40 C455.96,19.28 452.71,17.00 448.78,17.00 C446.19,17.00 396.23,38.20 390.93,41.55 C383.41,46.29 379.11,54.43 379.06,64.00 C379.04,69.63 379.77,71.72 389.93,95.00 C400.56,119.35 408.70,149.22 413.65,182.00 C415.75,195.92 416.56,235.43 415.05,250.30 C407.97,319.98 376.69,371.51 326.03,396.99 C303.39,408.37 282.68,413.15 256.00,413.15 C235.00,413.15 219.86,410.59 202.08,404.03 C148.57,384.30 112.33,337.71 100.17,273.00 C96.63,254.18 95.67,239.74 96.32,214.80 C96.89,192.39 97.84,182.98 101.46,163.50 C105.56,141.40 113.88,113.76 122.07,95.00 C132.23,71.72 132.96,69.63 132.94,64.00 C132.89,54.43 128.59,46.29 121.07,41.55 C115.77,38.20 65.81,17.00 63.22,17.00 C59.29,17.00 56.04,19.28 54.08,23.40 C46.59,39.14 45.61,43.03 47.99,47.49 C49.37,50.07 51.63,51.28 67.50,57.98 C84.65,65.22 85.27,67.13 76.13,84.41 C53.93,126.32 39.20,175.10 33.81,224.50 C32.11,240.06 32.11,282.37 33.81,296.00 C39.89,344.94 56.34,385.95 82.83,418.27 C91.04,428.28 107.89,444.45 117.73,451.74 C147.86,474.08 185.76,488.67 226.00,493.43 C241.89,495.30 268.74,495.31 285.00,493.45 ZM 232.06 457.00 C226.82,456.41 225.20,455.77 223.31,453.58 C220.22,449.98 220.31,445.59 223.57,442.34 C226.08,439.82 226.33,439.79 235.66,440.49 C240.89,440.88 250.05,441.20 256.00,441.20 C261.95,441.20 271.11,440.88 276.34,440.49 C285.67,439.79 285.92,439.82 288.43,442.34 C291.67,445.58 291.78,449.98 288.72,453.54 C286.82,455.75 285.23,456.32 278.97,457.05 C270.15,458.07 241.25,458.04 232.06,457.00 ZM 167.95 438.24 C151.91,430.17 142.24,423.77 140.95,420.36 C139.64,416.91 140.73,413.36 143.86,410.89 C147.46,408.07 151.43,408.86 158.84,413.89 C162.11,416.11 170.35,420.67 177.14,424.02 C183.94,427.37 190.05,430.65 190.73,431.32 C191.40,431.98 192.24,433.97 192.59,435.72 C193.13,438.41 192.75,439.41 190.19,441.96 C188.22,443.94 186.15,445.00 184.28,445.00 C182.70,445.00 175.35,441.96 167.95,438.24 ZM 321.81 441.96 C319.25,439.41 318.87,438.41 319.41,435.72 C319.76,433.97 320.60,431.98 321.27,431.32 C321.95,430.65 328.06,427.37 334.86,424.02 C341.65,420.67 349.89,416.11 353.16,413.89 C360.57,408.86 364.54,408.07 368.14,410.89 C369.59,412.03 371.05,414.07 371.39,415.41 C372.50,419.83 370.35,422.81 362.27,428.11 C352.17,434.73 331.09,445.00 327.58,445.00 C325.87,445.00 323.71,443.87 321.81,441.96 ZM 114.00 395.29 C109.78,393.75 99.92,380.85 90.63,364.71 C83.33,352.03 83.17,346.83 89.96,344.02 C95.02,341.92 98.00,343.93 103.00,352.80 C108.07,361.79 113.65,370.29 119.54,378.00 C121.85,381.02 124.00,384.56 124.31,385.86 C125.14,389.33 123.48,392.70 120.09,394.45 C116.92,396.09 116.38,396.17 114.00,395.29 ZM 391.70 394.43 C388.48,392.65 386.88,389.25 387.69,385.86 C388.00,384.56 390.15,381.02 392.46,378.00 C398.35,370.29 403.93,361.79 409.00,352.80 C414.00,343.93 416.98,341.92 422.04,344.02 C428.83,346.83 428.67,352.03 421.37,364.71 C415.21,375.41 405.56,389.24 401.85,392.68 C398.64,395.65 395.05,396.27 391.70,394.43 ZM 72.02 316.22 C69.54,314.21 66.07,301.08 63.50,284.02 C61.45,270.34 61.55,268.36 64.45,265.45 C67.57,262.34 72.04,262.26 75.44,265.25 C77.63,267.18 78.21,269.04 79.58,278.50 C80.45,284.55 82.03,293.23 83.08,297.79 C84.14,302.35 85.00,307.66 85.00,309.58 C85.00,316.48 77.24,320.44 72.02,316.22 ZM 429.45 315.55 C426.42,312.51 426.32,309.03 428.92,297.79 C429.97,293.23 431.55,284.55 432.42,278.50 C433.79,269.04 434.37,267.18 436.56,265.25 C439.96,262.26 444.43,262.34 447.55,265.45 C450.45,268.36 450.55,270.34 448.50,284.02 C445.93,301.08 442.46,314.21 439.98,316.22 C436.84,318.76 432.38,318.48 429.45,315.55 ZM 65.31 234.01 C64.10,233.51 62.36,231.95 61.43,230.53 C59.48,227.56 59.80,218.06 62.69,193.10 C64.61,176.47 66.02,173.60 72.28,173.60 C79.46,173.60 81.53,177.87 79.94,189.39 C79.32,193.85 78.25,204.84 77.56,213.82 C76.51,227.49 76.00,230.44 74.40,232.01 C72.02,234.34 68.17,235.19 65.31,234.01 ZM 440.02 233.74 C436.22,231.78 435.35,228.94 434.62,216.22 C434.25,209.78 433.27,199.26 432.45,192.86 C430.50,177.58 432.00,173.60 439.72,173.60 C445.92,173.60 447.37,176.49 449.28,192.59 C450.19,200.24 451.22,211.48 451.58,217.56 C452.21,228.23 452.15,228.71 449.87,231.27 C446.97,234.52 443.31,235.44 440.02,233.74 ZM 76.51 142.83 C73.98,140.84 73.80,140.24 74.29,135.58 C75.05,128.30 85.34,98.33 88.08,95.41 C92.30,90.93 100.02,93.23 101.58,99.44 C101.96,100.97 100.38,107.15 97.17,116.67 C94.42,124.82 91.65,133.46 91.01,135.86 C88.79,144.30 82.33,147.40 76.51,142.83 ZM 424.52 142.61 C423.21,141.30 421.62,138.27 420.99,135.86 C420.35,133.46 417.58,124.82 414.83,116.67 C411.62,107.15 410.04,100.97 410.42,99.44 C411.98,93.23 419.70,90.93 423.92,95.41 C426.66,98.33 436.95,128.30 437.71,135.58 C438.20,140.24 438.02,140.84 435.49,142.83 C431.84,145.70 427.52,145.61 424.52,142.61 Z" fill="rgba(0,0,0,1)"/>
</g>
</svg>